<?xml version="1.0" encoding="UTF-8" standalone="no"?><!DOCTYPE svg PUBLIC "-//W3C//DTD SVG 1.1//EN" "http://www.w3.org/Graphics/SVG/1.1/DTD/svg11.dtd"><svg width="100%" height="100%" viewBox="0 0 596 842" version="1.1" xmlns="http://www.w3.org/2000/svg" xmlns:xlink="http://www.w3.org/1999/xlink" xml:space="preserve" xmlns:serif="http://www.serif.com/" style="fill-rule:evenodd;clip-rule:evenodd;stroke-linejoin:round;stroke-miterlimit:1.41421;"><rect id="Page-1" serif:id="Page 1" x="0" y="0" width="595.276" height="841.89" style="fill:none;"/><clipPath id="_clip1"><rect x="0" y="0" width="595.276" height="841.89"/></clipPath><g clip-path="url(#_clip1)"><g><text x="499.49px" y="39.297px" style="font-family:'GothamBlack', 'Gotham Black';font-weight:900;font-size:15px;fill:#fff;">Aircision</text><text x="496.082px" y="51.297px" style="font-family:'Nexa-Bold', 'Nexa';font-weight:700;font-size:8px;fill:#fff;">Date 28</text><text x="528.098px" y="51.297px" style="font-family:'Nexa-Bold', 'Nexa';font-weight:700;font-size:8px;fill:#fff;">/</text><text x="531.958px" y="51.297px" style="font-family:'Nexa-Bold', 'Nexa';font-weight:700;font-size:8px;fill:#fff;">02/2019</text></g><path d="M0,48.189l0,745.497c1.517,0.032 3.02,0.049 4.521,0.049c74.273,0 185.584,-24.514 185.584,-24.514l405.17,-106.661l0,-614.371l-595.275,0Z" style="fill:url(#_Linear2);fill-rule:nonzero;"/><path d="M0,0l0,52.237l298.298,78.527c0,0 98.147,21.614 163.635,21.614c47.742,0 105.529,-18.896 133.342,-29.137l0,-123.241l-595.275,0Z" style="fill:url(#_Linear3);fill-rule:nonzero;"/><path d="M24.412,592.505l-24.412,9.153l0,240.232l595.275,0l0,-187.729l-282.86,-74.463c0,0 -90.161,-19.855 -150.321,-19.855c-60.161,0 -137.682,32.662 -137.682,32.662Z" style="fill:url(#_Linear4);fill-rule:nonzero;"/><path d="M304.007,680.226l-304.007,80.03l0,81.634l595.275,0l0,-147.144l-4.747,-1.78c0,0 -77.123,-32.493 -136.973,-32.493c-59.851,0 -149.548,19.753 -149.548,19.753Z" style="fill:url(#_Linear5);fill-rule:nonzero;"/></g><defs><linearGradient id="_Linear2" x1="0" y1="0" x2="1" y2="0" gradientUnits="userSpaceOnUse" gradientTransform="matrix(1354.24,-1316.94,1316.94,1354.24,-284.934,962.392)"><stop offset="0" style="stop-color:#f00;stop-opacity:1"/><stop offset="1" style="stop-color:#6e0031;stop-opacity:1"/></linearGradient><linearGradient id="_Linear3" x1="0" y1="0" x2="1" y2="0" gradientUnits="userSpaceOnUse" gradientTransform="matrix(-898.866,-0,0,898.866,693.926,152.378)"><stop offset="0" style="stop-color:#ef3d23;stop-opacity:1"/><stop offset="1" style="stop-color:#f05077;stop-opacity:1"/></linearGradient><linearGradient id="_Linear4" x1="0" y1="0" x2="1" y2="0" gradientUnits="userSpaceOnUse" gradientTransform="matrix(825.732,0,0,-825.732,-51.0236,559.843)"><stop offset="0" style="stop-color:#ef3d23;stop-opacity:1"/><stop offset="1" style="stop-color:#f05077;stop-opacity:1"/></linearGradient><linearGradient id="_Linear5" x1="0" y1="0" x2="1" y2="0" gradientUnits="userSpaceOnUse" gradientTransform="matrix(-821.48,0,-0,-821.48,665.575,660.473)"><stop offset="0" style="stop-color:#f00;stop-opacity:1"/><stop offset="1" style="stop-color:#6e0031;stop-opacity:1"/></linearGradient></defs></svg>